<?xml version="1.0" encoding="utf-8"?>
<!-- Generator: Adobe Illustrator 16.0.0, SVG Export Plug-In . SVG Version: 6.00 Build 0)  -->
<!DOCTYPE svg PUBLIC "-//W3C//DTD SVG 1.1//EN" "http://www.w3.org/Graphics/SVG/1.1/DTD/svg11.dtd">
<svg version="1.1" id="Layer_1" xmlns="http://www.w3.org/2000/svg" xmlns:xlink="http://www.w3.org/1999/xlink" x="0px" y="0px"
	 width="300px" height="40.006px" viewBox="0 0 300 40.006" enable-background="new 0 0 300 40.006" xml:space="preserve">
<g>
	<g>
		<g>
			<g>
				<g>
					<path fill="#545C63" d="M191.035,11.343h-0.823l-0.497-0.82c-0.037-0.062-0.071-0.118-0.105-0.167
						c-0.035-0.049-0.068-0.09-0.104-0.125c-0.033-0.035-0.07-0.062-0.108-0.081c-0.038-0.018-0.078-0.027-0.123-0.027h-0.193v1.219
						h-0.717V8.158h1.138c0.771,0,1.157,0.289,1.157,0.866c0,0.111-0.017,0.213-0.05,0.308c-0.034,0.094-0.083,0.179-0.144,0.254
						c-0.063,0.076-0.138,0.141-0.227,0.195c-0.088,0.055-0.186,0.098-0.295,0.129v0.008c0.048,0.015,0.095,0.039,0.139,0.072
						c0.044,0.034,0.087,0.073,0.13,0.117c0.04,0.044,0.08,0.092,0.117,0.144c0.038,0.051,0.072,0.101,0.104,0.149L191.035,11.343z
						 M189.08,8.695v0.886h0.312c0.153,0,0.276-0.044,0.371-0.134c0.095-0.09,0.142-0.202,0.142-0.335
						c0-0.278-0.167-0.417-0.5-0.417L189.08,8.695L189.08,8.695z"/>
				</g>
			</g>
			<g>
				<path fill="#545C63" d="M189.497,13.205c-1.904,0-3.456-1.549-3.456-3.454c0-1.905,1.552-3.455,3.456-3.455
					s3.453,1.549,3.453,3.455C192.95,11.655,191.401,13.205,189.497,13.205z M189.497,7.004c-1.516,0-2.746,1.231-2.746,2.746
					c0,1.514,1.23,2.746,2.746,2.746c1.513,0,2.746-1.231,2.746-2.746C192.243,8.236,191.011,7.004,189.497,7.004z"/>
			</g>
		</g>
	</g>
	<g>
		<path fill="#181A29" d="M29.119,38.027c-2.728,1.318-6.285,1.979-10.679,1.979c-5.729,0-10.235-1.684-13.517-5.054
			C1.64,31.585,0,27.096,0,21.488C0,15.515,1.844,10.67,5.534,6.955C9.224,3.238,14.013,1.38,19.898,1.38
			c3.646,0,6.719,0.46,9.22,1.38v8.1c-2.5-1.494-5.348-2.24-8.543-2.24c-3.507,0-6.337,1.103-8.49,3.308
			c-2.154,2.205-3.231,5.193-3.231,8.96c0,3.611,1.018,6.49,3.048,8.633c2.031,2.145,4.766,3.217,8.205,3.217
			c3.282,0,6.284-0.798,9.011-2.395L29.119,38.027L29.119,38.027z"/>
		<path fill="#181A29" d="M59.681,39.355h-7.789v-3.829h-0.104c-1.789,2.986-4.437,4.48-7.944,4.48
			c-2.587,0-4.624-0.733-6.108-2.201c-1.485-1.467-2.226-3.425-2.226-5.873c0-5.175,3.064-8.161,9.194-8.961l7.24-0.962
			c0-2.919-1.579-4.376-4.739-4.376c-3.178,0-6.199,0.946-9.064,2.839v-6.2c1.146-0.59,2.713-1.11,4.7-1.562
			c1.988-0.452,3.799-0.677,5.432-0.677c7.605,0,11.408,3.794,11.408,11.381V39.355L59.681,39.355z M51.944,28.52v-1.798
			l-4.844,0.626c-2.674,0.348-4.01,1.554-4.01,3.62c0,0.938,0.325,1.706,0.975,2.304c0.652,0.601,1.533,0.9,2.645,0.9
			c1.544,0,2.804-0.535,3.775-1.602C51.459,31.501,51.944,30.153,51.944,28.52z"/>
		<path fill="#181A29" d="M86.258,20.106c-0.991-0.538-2.145-0.807-3.465-0.807c-1.789,0-3.187,0.656-4.193,1.967
			c-1.008,1.312-1.51,3.096-1.51,5.353v12.736h-8.23V12.684h8.23v4.949h0.103c1.302-3.612,3.647-5.418,7.033-5.418
			c0.867,0,1.544,0.105,2.032,0.313V20.106L86.258,20.106z"/>
		<path fill="#181A29" d="M110.412,39.042c-1.216,0.642-3.048,0.963-5.497,0.963c-5.799,0-8.699-3.013-8.699-9.037V18.752h-4.322
			v-6.068h4.322V6.928l8.205-2.344v8.1h5.991v6.068h-5.991v10.783c0,2.779,1.102,4.166,3.309,4.166c0.867,0,1.761-0.25,2.682-0.754
			V39.042z"/>
		<path fill="#181A29" d="M143.11,12.684l-9.923,26.671h-9.377l-9.454-26.671h8.804l4.636,16.436
			c0.521,1.857,0.825,3.438,0.912,4.738h0.104c0.12-1.231,0.443-2.76,0.964-4.583l4.739-16.591H143.11z"/>
		<path fill="#181A29" d="M153.461,8.465c-1.39,0-2.528-0.413-3.413-1.238c-0.886-0.824-1.328-1.835-1.328-3.034
			c0-1.233,0.441-2.24,1.328-3.021C150.933,0.391,152.071,0,153.461,0c1.405,0,2.548,0.391,3.425,1.172
			c0.876,0.782,1.314,1.789,1.314,3.021c0,1.25-0.438,2.275-1.314,3.073C156.009,8.065,154.866,8.465,153.461,8.465z
			 M157.522,39.355h-8.229V12.684h8.229V39.355z"/>
		<path fill="#181A29" d="M165.374,38.653v-6.669c1.354,0.816,2.703,1.424,4.049,1.823c1.346,0.4,2.617,0.599,3.816,0.599
			c1.458,0,2.609-0.198,3.451-0.599c0.842-0.399,1.264-1.007,1.264-1.823c0-0.521-0.192-0.955-0.573-1.303
			c-0.382-0.346-0.873-0.651-1.472-0.912c-0.6-0.26-1.254-0.494-1.967-0.701c-0.713-0.208-1.398-0.443-2.057-0.704
			c-1.061-0.398-1.994-0.829-2.802-1.289c-0.807-0.46-1.484-0.994-2.031-1.603c-0.546-0.607-0.964-1.31-1.249-2.109
			c-0.287-0.798-0.43-1.745-0.43-2.838c0-1.494,0.325-2.778,0.976-3.854c0.651-1.077,1.52-1.958,2.604-2.644s2.327-1.189,3.725-1.51
			c1.398-0.322,2.852-0.482,4.363-0.482c1.181,0,2.378,0.091,3.594,0.273c1.217,0.182,2.413,0.448,3.595,0.794v6.355
			c-1.043-0.608-2.158-1.064-3.347-1.368c-1.189-0.304-2.357-0.455-3.503-0.455c-0.539,0-1.047,0.048-1.523,0.142
			c-0.479,0.096-0.899,0.234-1.265,0.417c-0.365,0.182-0.65,0.416-0.859,0.703s-0.313,0.612-0.313,0.977
			c0,0.487,0.156,0.903,0.47,1.25c0.313,0.347,0.72,0.647,1.224,0.898c0.503,0.251,1.064,0.479,1.681,0.677
			c0.615,0.2,1.228,0.403,1.836,0.612c1.094,0.382,2.083,0.798,2.968,1.25c0.888,0.451,1.646,0.981,2.28,1.589
			s1.119,1.32,1.458,2.136c0.339,0.818,0.509,1.789,0.509,2.917c0,1.579-0.344,2.931-1.029,4.051
			c-0.687,1.119-1.598,2.031-2.735,2.735c-1.138,0.703-2.447,1.214-3.932,1.536c-1.485,0.32-3.026,0.481-4.625,0.481
			C170.591,40.006,167.875,39.554,165.374,38.653z"/>
	</g>
</g>
<path fill="#E7EFFD" d="M300,33.567c0,3.196-2.592,5.788-5.789,5.788h-86.072c-3.197,0-5.789-2.592-5.789-5.788V10.373
	c0-3.197,2.592-5.789,5.789-5.789h86.072c3.197,0,5.789,2.591,5.789,5.789V33.567L300,33.567z"/>
<g>
	<path fill="#3869D1" d="M220.791,27.856v-2.185c0.196,0.178,0.43,0.339,0.7,0.481s0.558,0.264,0.86,0.361
		c0.304,0.098,0.606,0.174,0.91,0.228s0.583,0.08,0.838,0.08c0.893,0,1.557-0.148,1.994-0.446c0.437-0.297,0.655-0.729,0.655-1.293
		c0-0.304-0.072-0.566-0.219-0.789c-0.146-0.224-0.35-0.427-0.611-0.611c-0.261-0.185-0.568-0.361-0.922-0.531
		c-0.354-0.169-0.733-0.346-1.138-0.53c-0.435-0.231-0.839-0.467-1.213-0.705c-0.374-0.237-0.7-0.5-0.978-0.789
		c-0.276-0.288-0.493-0.614-0.65-0.977c-0.157-0.362-0.236-0.788-0.236-1.275c0-0.601,0.135-1.123,0.405-1.565
		s0.628-0.809,1.07-1.097c0.443-0.288,0.947-0.502,1.513-0.642c0.564-0.14,1.142-0.209,1.73-0.209c1.337,0,2.313,0.151,2.926,0.455
		v2.096c-0.726-0.523-1.66-0.785-2.802-0.785c-0.315,0-0.628,0.029-0.94,0.089s-0.592,0.158-0.839,0.294
		c-0.247,0.137-0.447,0.312-0.603,0.526c-0.154,0.214-0.23,0.473-0.23,0.776c0,0.286,0.059,0.532,0.178,0.74
		c0.119,0.208,0.292,0.398,0.521,0.571c0.229,0.173,0.508,0.34,0.839,0.504c0.33,0.164,0.712,0.34,1.146,0.53
		c0.446,0.232,0.867,0.476,1.263,0.731s0.743,0.538,1.043,0.848c0.301,0.31,0.538,0.652,0.714,1.03
		c0.176,0.377,0.264,0.807,0.264,1.288c0,0.648-0.132,1.195-0.393,1.642c-0.262,0.446-0.614,0.809-1.058,1.088
		c-0.442,0.279-0.952,0.482-1.529,0.607c-0.577,0.124-1.187,0.187-1.829,0.187c-0.214,0-0.477-0.017-0.789-0.049
		c-0.312-0.032-0.632-0.08-0.959-0.143c-0.326-0.063-0.637-0.139-0.928-0.228C221.204,28.07,220.97,27.969,220.791,27.856z"/>
	<path fill="#3869D1" d="M239.53,17.376h-3.675v10.989h-2.122V17.376h-3.666v-1.802h9.463V17.376z"/>
	<path fill="#3869D1" d="M250.582,28.365h-2.328l-1.15-3.256h-5.031l-1.105,3.256h-2.319l4.79-12.791h2.391L250.582,28.365z
		 M246.542,23.378l-1.775-5.102c-0.054-0.167-0.11-0.434-0.169-0.803h-0.036c-0.054,0.339-0.113,0.606-0.179,0.803l-1.757,5.102
		H246.542z"/>
	<path fill="#3869D1" d="M259.251,17.376h-3.675v10.989h-2.122V17.376h-3.666v-1.802h9.463V17.376z"/>
	<path fill="#3869D1" d="M270.963,23.191c0,3.592-1.701,5.388-5.103,5.388c-3.259,0-4.887-1.728-4.887-5.182v-7.823h2.122v7.385
		c0,2.51,0.975,3.765,2.926,3.765c1.879,0,2.818-1.211,2.818-3.631v-7.519h2.123V23.191z"/>
	<path fill="#3869D1" d="M273.38,27.856v-2.185c0.196,0.178,0.43,0.339,0.7,0.481s0.558,0.264,0.86,0.361
		c0.304,0.098,0.607,0.174,0.91,0.228s0.583,0.08,0.839,0.08c0.892,0,1.556-0.148,1.993-0.446c0.438-0.297,0.655-0.729,0.655-1.293
		c0-0.304-0.072-0.566-0.218-0.789c-0.146-0.224-0.35-0.427-0.611-0.611s-0.569-0.361-0.924-0.531
		c-0.354-0.169-0.732-0.346-1.137-0.53c-0.434-0.231-0.839-0.467-1.213-0.705c-0.375-0.237-0.7-0.5-0.977-0.789
		c-0.276-0.288-0.493-0.614-0.651-0.977c-0.158-0.362-0.236-0.788-0.236-1.275c0-0.601,0.136-1.123,0.406-1.565
		s0.627-0.809,1.069-1.097c0.443-0.288,0.947-0.502,1.512-0.642c0.566-0.14,1.143-0.209,1.73-0.209c1.339,0,2.313,0.151,2.926,0.455
		v2.096c-0.726-0.523-1.658-0.785-2.8-0.785c-0.315,0-0.63,0.029-0.941,0.089s-0.592,0.158-0.838,0.294
		c-0.247,0.137-0.448,0.312-0.603,0.526s-0.232,0.473-0.232,0.776c0,0.286,0.06,0.532,0.179,0.74
		c0.118,0.208,0.293,0.398,0.521,0.571c0.229,0.173,0.509,0.34,0.838,0.504c0.331,0.164,0.713,0.34,1.146,0.53
		c0.446,0.232,0.867,0.476,1.263,0.731s0.743,0.538,1.043,0.848c0.301,0.31,0.539,0.652,0.714,1.03
		c0.176,0.377,0.263,0.807,0.263,1.288c0,0.648-0.13,1.195-0.392,1.642s-0.614,0.809-1.057,1.088
		c-0.443,0.279-0.953,0.482-1.53,0.607c-0.577,0.124-1.186,0.187-1.828,0.187c-0.215,0-0.478-0.017-0.789-0.049
		c-0.313-0.032-0.633-0.08-0.959-0.143c-0.328-0.063-0.637-0.139-0.928-0.228C273.793,28.07,273.559,27.969,273.38,27.856z"/>
</g>
</svg>
